# xmcd CD database file
#
# Track frame offsets:
#	150
#	18212
#	35335
#	73792
#	92037
#	107822
#	134405
#	152870
#	173887
#	206780
#	221975
#	235830
#
# Disc length: 3410 seconds
#
# Revision: 0
# Processed by: cddbd v1.4PL0 Copyright (c) Steve Scherf et al.
# Submitted via: CDex 1.40Beta8
#
DISCID=ad0d500c
DTITLE=Hubert Sumlin - I Know You
DYEAR=1998
DGENRE=Blues
TTITLE0=I'm Coming Home
TTITLE1=Howlin' For My Darling
TTITLE2=That's Why I'm Gonna Leave You
TTITLE3=How Many More Years
TTITLE4=Don't Judge A Book By The Cover
TTITLE5=I Got It Where I Want It
TTITLE6=I'm Not Your Clown
TTITLE7="Smokestack"
TTITLE8=I've Been Hurt
TTITLE9=Mind Is Rambling
TTITLE10=You My Best
TTITLE11=Good Bye
EXTD=YEAR: 1998 ID3G: 0
EXTT0=
EXTT1=
EXTT2=
EXTT3=
EXTT4=
EXTT5=
EXTT6=
EXTT7=
EXTT8=
EXTT9=
EXTT10=
EXTT11=
PLAYORDER=
